<?xml version="1.0" encoding="UTF-8"?>
<svg id="Expanded" xmlns="http://www.w3.org/2000/svg" viewBox="0 0 64 64">
  <path d="M49.25,51.63c1.02-1.29,1.91-2.69,2.62-4.19.02-.03.03-.06.04-.1,1.34-2.84,2.09-6,2.09-9.34s-.75-6.51-2.09-9.34c-.01-.03-.03-.06-.04-.1-.72-1.5-1.6-2.9-2.62-4.19-.02-.03-.04-.06-.07-.09-2.4-2.99-5.55-5.35-9.18-6.77v-2.51c0-2.61-2.02-4.74-4.58-4.96.36-.6.58-1.29.58-2.04,0-2.21-1.79-4-4-4s-4,1.79-4,4c0,.75.22,1.44.58,2.04-2.56.22-4.58,2.34-4.58,4.96v2.51c-3.63,1.42-6.78,3.78-9.18,6.77-.03.02-.04.06-.07.08-1.02,1.29-1.91,2.7-2.62,4.2-.01.03-.03.06-.04.09-1.34,2.84-2.09,6.01-2.09,9.35s.75,6.51,2.09,9.35c.01.03.03.06.04.09.72,1.5,1.6,2.91,2.62,4.2.02.03.04.06.07.08,4.03,5.04,10.23,8.28,17.18,8.28s13.15-3.24,17.18-8.28c.03-.03.04-.06.07-.09ZM14.71,48h34.59c-.4.7-.85,1.36-1.33,2h-31.92c-.48-.64-.93-1.3-1.33-2ZM16.04,26h31.92c.48.64.93,1.3,1.33,2H14.71c.4-.7.85-1.36,1.33-2ZM32,6c1.1,0,2,.9,2,2s-.9,2-2,2-2-.9-2-2,.9-2,2-2ZM26,15c0-1.65,1.35-3,3-3h6c1.65,0,3,1.35,3,3v1.84c-1.91-.54-3.92-.84-6-.84s-4.09.3-6,.84v-1.84ZM32,18c5.58,0,10.63,2.3,14.26,6h-28.52c3.63-3.7,8.68-6,14.26-6ZM13.68,30h36.64c1.08,2.45,1.68,5.16,1.68,8s-.61,5.55-1.68,8H13.68c-1.08-2.45-1.68-5.16-1.68-8s.61-5.55,1.68-8ZM32,58c-5.58,0-10.63-2.3-14.26-6h28.52c-3.63,3.7-8.68,6-14.26,6ZM32,43c2.76,0,5-2.24,5-5s-2.24-5-5-5-5,2.24-5,5,2.24,5,5,5ZM32,35c1.65,0,3,1.35,3,3s-1.35,3-3,3-3-1.35-3-3,1.35-3,3-3ZM20,43c2.76,0,5-2.24,5-5s-2.24-5-5-5-5,2.24-5,5,2.24,5,5,5ZM20,35c1.65,0,3,1.35,3,3s-1.35,3-3,3-3-1.35-3-3,1.35-3,3-3ZM44,43c2.76,0,5-2.24,5-5s-2.24-5-5-5-5,2.24-5,5,2.24,5,5,5ZM44,35c1.65,0,3,1.35,3,3s-1.35,3-3,3-3-1.35-3-3,1.35-3,3-3Z"/>
</svg>