<svg width="1723" height="1117" viewBox="0 0 1723 1117" fill="none" xmlns="http://www.w3.org/2000/svg">
<g clip-path="url(#clip0_97_401)">
<path d="M1147.33 817.539C1147.24 820.722 1149.77 823.372 1152.97 823.454C1156.18 823.537 1158.85 821.018 1158.94 817.835C1159.01 814.649 1156.49 812.009 1153.29 811.927C1150.07 811.837 1147.41 814.356 1147.33 817.539Z" fill="white"/>
<path d="M1576.13 1048.86C1576.09 1050.26 1577.1 1051.43 1578.38 1051.45C1579.66 1051.49 1580.72 1050.39 1580.76 1048.99C1580.8 1047.59 1579.79 1046.43 1578.52 1046.39C1577.23 1046.37 1576.16 1047.47 1576.13 1048.86Z" fill="white"/>
<path d="M1158.29 485.166C1161.49 485.102 1164.04 482.472 1163.97 479.286C1163.91 476.099 1161.26 473.574 1158.06 473.634C1154.85 473.699 1152.3 476.335 1152.37 479.514C1152.43 482.701 1155.08 485.234 1158.29 485.166Z" fill="white"/>
<path d="M1344.41 94.8681C1347.62 94.8038 1350.17 92.1674 1350.1 88.9845C1350.04 85.798 1347.39 83.2724 1344.18 83.3331C1340.97 83.3974 1338.43 86.0338 1338.49 89.2096C1338.56 92.4032 1341.2 94.9288 1344.41 94.8681Z" fill="white"/>
<path d="M245.533 254.776C246.94 254.747 248.062 253.701 248.037 252.425C248.012 251.154 246.847 250.146 245.447 250.175C244.037 250.203 242.919 251.257 242.944 252.526C242.969 253.797 244.13 254.805 245.533 254.776Z" fill="white"/>
<path d="M689.949 693.74C691.353 693.715 692.474 692.657 692.449 691.389C692.424 690.117 691.263 689.106 689.86 689.138C688.453 689.163 687.332 690.217 687.357 691.489C687.382 692.761 688.542 693.772 689.949 693.74Z" fill="white"/>
<path d="M38.3117 626.612C39.7152 626.587 40.8401 625.533 40.8115 624.258C40.7866 622.99 39.6259 621.982 38.2189 622.007C36.8118 622.036 35.694 623.09 35.719 624.358C35.744 625.63 36.9047 626.637 38.3117 626.608V626.612Z" fill="white"/>
<path d="M15.724 259.388C12.5206 259.438 9.96366 262.074 10.0244 265.261C10.0815 268.447 12.7278 270.973 15.9311 270.916C19.138 270.859 21.695 268.229 21.6307 265.05C21.5736 261.856 18.9309 259.324 15.724 259.388Z" fill="white"/>
<path d="M496.755 1089.39C495.345 1089.41 494.227 1090.46 494.248 1091.74C494.27 1093 495.434 1094.01 496.837 1093.99C498.245 1093.96 499.366 1092.91 499.341 1091.64C499.319 1090.37 498.162 1089.36 496.755 1089.38V1089.39Z" fill="white"/>
<path d="M1156.71 580.25C1155.3 580.275 1154.18 581.326 1154.2 582.601C1154.22 583.869 1155.39 584.877 1156.79 584.852C1158.2 584.827 1159.32 583.776 1159.3 582.505C1159.27 581.236 1158.12 580.225 1156.71 580.247V580.25Z" fill="white"/>
<path d="M157.543 164.675C156.136 164.707 155.014 165.75 155.039 167.029C155.061 168.297 156.222 169.308 157.629 169.276C159.036 169.258 160.157 168.201 160.132 166.936C160.114 165.657 158.95 164.65 157.543 164.671V164.675Z" fill="white"/>
<path d="M20.5594 753.894C19.1487 753.926 18.031 754.973 18.056 756.244C18.0738 757.516 19.238 758.52 20.6451 758.502C22.0485 758.477 23.1735 757.427 23.1449 756.152C23.1199 754.883 21.9628 753.876 20.5558 753.894H20.5594Z" fill="white"/>
<path d="M302.576 114.805C301.172 114.83 300.047 115.88 300.072 117.152C300.097 118.417 301.254 119.428 302.658 119.406C304.065 119.374 305.19 118.327 305.172 117.059C305.147 115.784 303.983 114.773 302.579 114.802L302.576 114.805Z" fill="white"/>
<path d="M567.825 720.861C566.418 720.886 565.293 721.929 565.322 723.208C565.34 724.476 566.504 725.491 567.911 725.466C569.315 725.433 570.436 724.39 570.411 723.122C570.39 721.85 569.229 720.839 567.825 720.864V720.861Z" fill="white"/>
<path d="M484.092 1041.17C482.685 1041.19 481.564 1042.24 481.589 1043.51C481.614 1044.78 482.771 1045.79 484.174 1045.76C485.581 1045.74 486.706 1044.69 486.677 1043.42C486.652 1042.15 485.499 1041.14 484.088 1041.17H484.092Z" fill="white"/>
<path d="M1091.19 1026.02C1089.79 1026.04 1088.66 1027.1 1088.69 1028.37C1088.71 1029.64 1089.87 1030.65 1091.28 1030.62C1092.69 1030.6 1093.81 1029.54 1093.78 1028.28C1093.76 1027 1092.6 1026 1091.19 1026.02V1026.02Z" fill="white"/>
<path d="M26.8125 399.987C26.7304 403.17 29.2659 405.821 32.4728 405.907C35.6726 405.985 38.3403 403.47 38.426 400.284C38.5117 397.101 35.9833 394.454 32.7799 394.368C29.5694 394.286 26.9018 396.801 26.8161 399.987H26.8125Z" fill="white"/>
<path d="M447.219 646.117C447.134 649.3 449.659 651.951 452.869 652.033C456.072 652.118 458.74 649.604 458.822 646.421C458.908 643.231 456.376 640.58 453.173 640.501C449.966 640.419 447.302 642.93 447.219 646.113V646.117Z" fill="white"/>
<path d="M691.231 854.773C691.196 856.17 692.199 857.327 693.481 857.363C694.756 857.398 695.824 856.287 695.863 854.891C695.903 853.494 694.892 852.329 693.617 852.301C692.331 852.269 691.271 853.376 691.231 854.773Z" fill="white"/>
<path d="M395.884 914.906C395.851 916.302 396.855 917.46 398.133 917.496C399.415 917.528 400.48 916.42 400.519 915.024C400.551 913.627 399.548 912.469 398.273 912.437C396.987 912.405 395.923 913.509 395.884 914.906Z" fill="white"/>
<path d="M366.157 80.979C366.121 82.3722 367.125 83.5332 368.407 83.5689C369.689 83.601 370.753 82.4972 370.789 81.0969C370.828 79.7001 369.821 78.5391 368.546 78.5034C367.264 78.4712 366.196 79.5786 366.157 80.9754V80.979Z" fill="white"/>
<path d="M1427.85 869.448C1427.81 870.848 1428.82 872.006 1430.1 872.038C1431.37 872.073 1432.44 870.966 1432.48 869.566C1432.52 868.169 1431.51 867.012 1430.23 866.979C1428.95 866.944 1427.88 868.051 1427.85 869.451V869.448Z" fill="white"/>
<path d="M445.059 949.468C445.023 950.865 446.027 952.022 447.309 952.058C448.587 952.086 449.651 950.975 449.687 949.586C449.726 948.182 448.719 947.024 447.441 946.996C446.159 946.964 445.094 948.071 445.059 949.468Z" fill="white"/>
<path d="M674.286 593.579C674.247 594.976 675.25 596.137 676.536 596.169C677.818 596.201 678.879 595.101 678.921 593.697C678.957 592.3 677.947 591.135 676.664 591.11C675.393 591.078 674.318 592.178 674.282 593.575L674.286 593.579Z" fill="white"/>
<path d="M1699.13 494.415C1699.09 495.812 1700.09 496.976 1701.37 497.005C1702.66 497.037 1703.72 495.937 1703.76 494.533C1703.79 493.136 1702.78 491.978 1701.51 491.939C1700.23 491.907 1699.16 493.014 1699.13 494.411V494.415Z" fill="white"/>
<path d="M127.241 284.001C127.202 285.398 128.213 286.555 129.491 286.591C130.77 286.627 131.834 285.516 131.873 284.119C131.905 282.722 130.902 281.558 129.63 281.529C128.345 281.497 127.281 282.604 127.241 284.001Z" fill="white"/>
<path d="M52.1929 316.984C52.1536 318.381 53.1607 319.546 54.4392 319.574C55.7176 319.607 56.7819 318.499 56.8247 317.102C56.8569 315.706 55.8498 314.552 54.5713 314.52C53.2928 314.48 52.2286 315.588 52.1929 316.984Z" fill="white"/>
<path d="M224.681 207.36C224.645 208.757 225.652 209.918 226.935 209.95C228.209 209.983 229.274 208.875 229.313 207.478C229.345 206.082 228.345 204.928 227.07 204.896C225.792 204.856 224.72 205.964 224.681 207.36Z" fill="white"/>
<path d="M1544.13 291.789C1544.04 294.972 1546.57 297.622 1549.78 297.705C1552.99 297.787 1555.65 295.268 1555.74 292.085C1555.82 288.899 1553.3 286.259 1550.09 286.177C1546.88 286.087 1544.22 288.606 1544.13 291.789Z" fill="white"/>
<path d="M806.848 496.726C806.763 499.912 809.291 502.56 812.498 502.649C815.708 502.731 818.373 500.216 818.451 497.03C818.54 493.843 816.012 491.196 812.805 491.107C809.595 491.032 806.93 493.547 806.848 496.726Z" fill="white"/>
<path d="M1578.66 100.416C1575.46 100.473 1572.9 103.102 1572.96 106.289C1573.02 109.472 1575.66 112.001 1578.87 111.944C1582.08 111.887 1584.62 109.258 1584.57 106.071C1584.51 102.884 1581.87 100.359 1578.66 100.412V100.416Z" fill="white"/>
<path d="M54.3748 1011.55C54.3391 1012.95 55.3462 1014.12 56.6247 1014.14C57.9067 1014.18 58.9674 1013.08 59.0066 1011.68C59.0495 1010.28 58.0389 1009.12 56.7639 1009.08C55.4783 1009.06 54.4105 1010.16 54.3748 1011.55Z" fill="white"/>
<path d="M163.382 337.658C163.353 339.054 164.357 340.219 165.639 340.247C166.924 340.28 167.989 339.172 168.021 337.775C168.06 336.375 167.056 335.225 165.774 335.185C164.496 335.153 163.428 336.257 163.382 337.658Z" fill="white"/>
<path d="M1412.72 0.75517C1415.9 0.915924 1418.6 -1.55614 1418.76 -4.75695C1418.92 -7.96489 1416.46 -10.6834 1413.28 -10.837C1410.1 -10.9942 1407.39 -8.51859 1407.24 -5.32493C1407.08 -2.11341 1409.54 0.60156 1412.72 0.75517Z" fill="white"/>
<path d="M307.208 14.1372C308.604 14.2015 309.782 13.2262 309.84 11.9473C309.907 10.672 308.818 9.57886 307.422 9.51099C306.026 9.43954 304.847 10.4219 304.79 11.7008C304.722 12.9797 305.811 14.0728 307.208 14.1372Z" fill="white"/>
<path d="M86.012 -0.634419C86.087 2.57353 88.7296 5.11345 91.9151 5.03486C95.0899 4.96698 97.6112 2.30203 97.5398 -0.898768C97.4648 -4.11029 94.8292 -6.64664 91.6473 -6.57162C88.4618 -6.50017 85.9406 -3.83879 86.012 -0.634419Z" fill="white"/>
<path d="M1184.61 1006.46C1187.82 1006.4 1190.37 1003.77 1190.31 1000.59C1190.25 997.401 1187.61 994.869 1184.4 994.926C1181.19 994.99 1178.64 997.612 1178.71 1000.8C1178.76 1003.99 1181.41 1006.52 1184.62 1006.46H1184.61Z" fill="white"/>
<path d="M141.865 391.539C143.272 391.507 144.394 390.464 144.369 389.188C144.347 387.917 143.187 386.913 141.78 386.938C140.373 386.963 139.251 388.013 139.28 389.285C139.301 390.553 140.458 391.564 141.865 391.542V391.539Z" fill="white"/>
<path d="M366.561 660.003C367.971 659.97 369.089 658.924 369.064 657.652C369.046 656.38 367.882 655.376 366.475 655.394C365.071 655.419 363.947 656.47 363.975 657.745C364 659.013 365.157 660.02 366.564 660.003H366.561Z" fill="white"/>
<path d="M1083.39 388.374C1084.79 388.356 1085.92 387.306 1085.89 386.03C1085.87 384.766 1084.71 383.755 1083.3 383.78C1081.9 383.805 1080.78 384.855 1080.8 386.123C1080.82 387.395 1081.98 388.406 1083.39 388.374Z" fill="white"/>
<path d="M1660.99 158.916C1662.4 158.891 1663.52 157.848 1663.49 156.569C1663.48 155.301 1662.31 154.286 1660.9 154.311C1659.5 154.344 1658.38 155.387 1658.4 156.658C1658.43 157.93 1659.59 158.941 1660.99 158.916Z" fill="white"/>
<path d="M56.714 786.995C56.7497 785.602 55.7462 784.441 54.4641 784.405C53.1821 784.373 52.1179 785.477 52.0822 786.877C52.0429 788.274 53.05 789.435 54.3249 789.471C55.6069 789.503 56.6747 788.396 56.714 786.999V786.995Z" fill="white"/>
<path d="M1667.45 252.525C1667.53 249.339 1665.01 246.692 1661.8 246.61C1658.59 246.527 1655.93 249.042 1655.84 252.229C1655.76 255.408 1658.29 258.055 1661.49 258.141C1664.7 258.223 1667.37 255.712 1667.44 252.529L1667.45 252.525Z" fill="white"/>
<path d="M1318.68 3.24868C1318.71 1.8519 1317.71 0.694466 1316.43 0.658742C1315.15 0.630164 1314.09 1.74115 1314.05 3.13078C1314.01 4.53471 1315.02 5.69214 1316.3 5.72072C1317.58 5.75287 1318.64 4.64546 1318.68 3.24868Z" fill="white"/>
<path d="M208.711 82.9366C208.739 81.5398 207.736 80.3752 206.454 80.3466C205.168 80.3145 204.104 81.4219 204.072 82.8187C204.032 84.219 205.036 85.3693 206.318 85.4086C207.596 85.4408 208.664 84.3369 208.711 82.9366Z" fill="white"/>
<path d="M1689.17 198.58C1690.58 198.519 1691.68 197.444 1691.62 196.172C1691.56 194.904 1690.38 193.922 1688.97 193.986C1687.56 194.057 1686.47 195.129 1686.53 196.394C1686.58 197.662 1687.77 198.644 1689.17 198.58Z" fill="white"/>
<path d="M75.8984 519.817C79.0982 519.675 81.5838 516.977 81.4338 513.798C81.2909 510.612 78.5768 508.154 75.377 508.297C72.1665 508.443 69.6881 511.137 69.8381 514.316C69.9774 517.503 72.6915 519.964 75.8984 519.817Z" fill="white"/>
<path d="M531.489 685.609C534.692 685.466 537.178 682.769 537.028 679.582C536.888 676.403 534.171 673.938 530.971 674.088C527.767 674.231 525.289 676.925 525.432 680.104C525.571 683.287 528.289 685.748 531.489 685.609Z" fill="white"/>
<path d="M1022.59 287.545C1023.99 287.52 1025.11 286.47 1025.1 285.202C1025.07 283.93 1023.91 282.919 1022.51 282.944C1021.09 282.969 1019.98 284.019 1020 285.291C1020.02 286.57 1021.18 287.574 1022.59 287.549V287.545Z" fill="white"/>
<path d="M1698.92 10.772C1699.01 7.58903 1696.48 4.93837 1693.27 4.8562C1690.06 4.77404 1687.4 7.29252 1687.31 10.4755C1687.23 13.662 1689.75 16.3019 1692.96 16.3841C1696.17 16.4734 1698.83 13.9549 1698.92 10.772Z" fill="white"/>
<path d="M417.957 17.4522C417.986 16.0554 416.982 14.8908 415.7 14.8623C414.414 14.8301 413.35 15.9375 413.318 17.3343C413.279 18.7346 414.282 19.8885 415.564 19.9242C416.843 19.9564 417.911 18.8525 417.957 17.4522Z" fill="white"/>
<path d="M853.81 686.352C852.413 686.288 851.235 687.267 851.17 688.549C851.11 689.824 852.192 690.918 853.588 690.982C854.984 691.05 856.167 690.071 856.227 688.799C856.288 687.52 855.206 686.424 853.81 686.356V686.352Z" fill="white"/>
<path d="M1527.46 -1.38815C1526.06 -1.44531 1524.88 -0.470074 1524.82 0.808818C1524.76 2.09128 1525.84 3.18084 1527.23 3.24515C1528.63 3.31659 1529.81 2.3342 1529.87 1.05531C1529.93 -0.223582 1528.86 -1.3167 1527.46 -1.39172V-1.38815Z" fill="white"/>
<path d="M1646.85 931.921C1646.78 928.713 1644.13 926.169 1640.95 926.248C1637.77 926.316 1635.25 928.981 1635.32 932.182C1635.4 935.389 1638.03 937.929 1641.22 937.854C1644.4 937.787 1646.92 935.122 1646.85 931.921H1646.85Z" fill="white"/>
<path d="M115.421 873.245C115.346 870.037 112.703 867.497 109.517 867.576C106.343 867.644 103.821 870.309 103.893 873.51C103.968 876.721 106.603 879.257 109.785 879.182C112.971 879.111 115.492 876.45 115.421 873.245Z" fill="white"/>
<path d="M1553.19 817.842C1553.28 814.659 1550.75 812.008 1547.54 811.926C1544.33 811.844 1541.67 814.363 1541.58 817.546C1541.5 820.732 1544.02 823.372 1547.23 823.454C1550.44 823.543 1553.1 821.025 1553.19 817.842Z" fill="white"/>
<path d="M1306.97 713.92C1307.06 710.733 1304.53 708.086 1301.33 707.997C1298.11 707.914 1295.45 710.429 1295.37 713.616C1295.28 716.802 1297.81 719.449 1301.02 719.539C1304.22 719.614 1306.89 717.099 1306.97 713.92Z" fill="white"/>
<path d="M1238.24 706.718C1238.28 705.321 1237.28 704.156 1235.99 704.128C1234.71 704.096 1233.65 705.196 1233.61 706.593C1233.57 707.99 1234.58 709.151 1235.85 709.19C1237.14 709.215 1238.21 708.115 1238.24 706.718Z" fill="white"/>
<path d="M4.17471 130.163C2.76766 130.195 1.64631 131.249 1.67131 132.52C1.69631 133.788 2.85694 134.796 4.26042 134.764C5.66746 134.739 6.78882 133.685 6.76382 132.42C6.73882 131.141 5.57461 130.138 4.17114 130.163H4.17471Z" fill="white"/>
<path d="M1215.92 611.998C1219.12 611.933 1221.68 609.311 1221.62 606.125C1221.56 602.938 1218.92 600.405 1215.71 600.463C1212.5 600.527 1209.95 603.149 1210.01 606.336C1210.07 609.522 1212.71 612.055 1215.92 611.998H1215.92Z" fill="white"/>
<path d="M677.164 33.4848C680.368 33.4277 682.921 30.7984 682.86 27.6119C682.8 24.4254 680.161 21.8962 676.954 21.9533C673.747 22.0141 671.193 24.6397 671.254 27.8262C671.311 31.0163 673.957 33.5455 677.164 33.4848Z" fill="white"/>
<path d="M11.4777 968.68C14.6847 968.619 17.2345 965.994 17.1774 962.811C17.1202 959.624 14.474 957.091 11.2706 957.148C8.06369 957.209 5.5103 959.842 5.57101 963.021C5.62815 966.204 8.27082 968.741 11.4777 968.683V968.68Z" fill="white"/>
<path d="M660.748 927.423C662.158 927.398 663.276 926.348 663.255 925.073C663.233 923.804 662.069 922.797 660.665 922.822C659.258 922.847 658.137 923.897 658.162 925.169C658.183 926.437 659.341 927.448 660.748 927.427V927.423Z" fill="white"/>
<path d="M895.089 646.578C896.499 646.553 897.617 645.502 897.596 644.227C897.574 642.959 896.41 641.952 895.006 641.977C893.599 642.002 892.478 643.052 892.503 644.323C892.525 645.592 893.682 646.603 895.089 646.581V646.578Z" fill="white"/>
<path d="M1627.58 331.395C1628.99 331.37 1630.11 330.32 1630.09 329.045C1630.06 327.777 1628.9 326.769 1627.5 326.794C1626.09 326.819 1624.97 327.869 1624.99 329.141C1625.01 330.409 1626.17 331.42 1627.58 331.399V331.395Z" fill="white"/>
<path d="M456.233 1103.02C457.64 1102.99 458.761 1101.95 458.736 1100.67C458.715 1099.4 457.554 1098.39 456.147 1098.42C454.74 1098.44 453.619 1099.49 453.644 1100.76C453.662 1102.04 454.826 1103.05 456.233 1103.02V1103.02Z" fill="white"/>
<path d="M155.236 838.44C156.643 838.408 157.764 837.365 157.739 836.089C157.718 834.818 156.557 833.814 155.15 833.839C153.743 833.864 152.622 834.914 152.65 836.186C152.672 837.454 153.829 838.465 155.236 838.444V838.44Z" fill="white"/>
<path d="M450.248 848.057C451.655 848.035 452.776 846.985 452.751 845.713C452.726 844.438 451.569 843.434 450.166 843.459C448.759 843.484 447.634 844.534 447.662 845.803C447.687 847.074 448.841 848.085 450.251 848.057H450.248Z" fill="white"/>
<path d="M1021.64 959.517C1023.05 959.496 1024.17 958.442 1024.14 957.166C1024.12 955.902 1022.96 954.891 1021.56 954.916C1020.15 954.941 1019.03 955.998 1019.05 957.263C1019.07 958.538 1020.23 959.546 1021.64 959.521V959.517Z" fill="white"/>
<path d="M1084.41 746.292C1087.62 746.242 1090.16 743.609 1090.11 740.419C1090.05 737.24 1087.4 734.707 1084.2 734.761C1081 734.825 1078.44 737.447 1078.5 740.633C1078.56 743.82 1081.2 746.353 1084.41 746.292Z" fill="white"/>
<path d="M1055.8 1014.97C1057.21 1014.94 1058.33 1013.89 1058.31 1012.62C1058.28 1011.35 1057.12 1010.34 1055.72 1010.37C1054.31 1010.39 1053.19 1011.44 1053.21 1012.71C1053.24 1013.98 1054.4 1014.99 1055.8 1014.97Z" fill="white"/>
<path d="M1361.47 880.815C1361.55 877.632 1359.03 874.985 1355.82 874.896C1352.61 874.814 1349.95 877.329 1349.86 880.512C1349.78 883.702 1352.31 886.349 1355.51 886.431C1358.72 886.513 1361.39 884.002 1361.47 880.815H1361.47Z" fill="white"/>
<path d="M137.312 769.626C137.348 768.233 136.348 767.072 135.062 767.04C133.784 767.004 132.72 768.108 132.68 769.508C132.641 770.909 133.648 772.066 134.93 772.095C136.212 772.134 137.276 771.027 137.312 769.623V769.626Z" fill="white"/>
<path d="M59.1424 93.2784C59.1745 91.8852 58.1746 90.7242 56.8926 90.692C55.6105 90.6563 54.5463 91.7637 54.5034 93.164C54.4713 94.5608 55.4748 95.7182 56.7533 95.7504C58.0353 95.7825 59.1067 94.6787 59.1424 93.2784Z" fill="white"/>
<path d="M289.494 232.002C289.537 230.602 288.53 229.445 287.252 229.412C285.973 229.377 284.905 230.484 284.866 231.885C284.83 233.281 285.834 234.439 287.112 234.471C288.394 234.507 289.462 233.399 289.494 231.999V232.002Z" fill="white"/>
<path d="M1463.91 638.079C1463.94 636.682 1462.94 635.525 1461.66 635.489C1460.38 635.461 1459.31 636.572 1459.28 637.961C1459.24 639.365 1460.25 640.523 1461.53 640.551C1462.81 640.583 1463.87 639.476 1463.91 638.079Z" fill="white"/>
<path d="M1380.71 1023.25C1380.75 1021.85 1379.75 1020.69 1378.47 1020.66C1377.18 1020.63 1376.12 1021.73 1376.08 1023.13C1376.05 1024.53 1377.05 1025.68 1378.33 1025.72C1379.61 1025.75 1380.67 1024.65 1380.71 1023.25V1023.25Z" fill="white"/>
<path d="M156.836 900.174C156.864 898.777 155.861 897.612 154.579 897.584C153.293 897.552 152.229 898.659 152.197 900.056C152.157 901.456 153.161 902.606 154.443 902.646C155.721 902.678 156.789 901.574 156.836 900.174Z" fill="white"/>
<path d="M158.757 1046.37C158.789 1044.97 157.789 1043.81 156.507 1043.78C155.232 1043.74 154.164 1044.86 154.125 1046.25C154.086 1047.65 155.093 1048.81 156.371 1048.84C157.65 1048.88 158.718 1047.76 158.753 1046.37H158.757Z" fill="white"/>
<path d="M1520.42 204.996C1520.17 205.146 1519.92 205.303 1519.67 205.457C1519.04 204.989 1518.64 204.195 1518.66 203.299C1518.7 201.902 1519.77 200.791 1521.05 200.827C1522.26 200.855 1523.22 201.895 1523.3 203.181C1522.32 203.745 1521.36 204.349 1520.42 204.992L1520.42 204.996Z" fill="white"/>
<path d="M1698.96 609.372C1699 607.975 1697.99 606.818 1696.71 606.782C1695.43 606.746 1694.37 607.857 1694.33 609.254C1694.29 610.651 1695.3 611.815 1696.57 611.844C1697.86 611.876 1698.92 610.769 1698.96 609.372Z" fill="white"/>
<path d="M1700.43 543.502C1700.47 542.105 1699.46 540.94 1698.18 540.912C1696.9 540.88 1695.84 541.987 1695.79 543.384C1695.76 544.781 1696.77 545.938 1698.05 545.967C1699.33 546.006 1700.39 544.899 1700.43 543.502Z" fill="white"/>
<path d="M184.47 994.926C185.877 994.865 186.973 993.79 186.916 992.518C186.859 991.25 185.673 990.267 184.262 990.332C182.855 990.403 181.766 991.475 181.827 992.739C181.88 994.008 183.07 994.99 184.47 994.926Z" fill="white"/>
<path d="M81.7659 204.917C84.9656 204.774 87.4512 202.077 87.3012 198.894C87.1583 195.711 84.4442 193.25 81.2445 193.393C78.034 193.539 75.5556 196.233 75.7056 199.412C75.8448 202.599 78.5589 205.06 81.7659 204.913V204.917Z" fill="white"/>
<path d="M1456.33 163.378C1459.53 163.235 1462.02 160.538 1461.87 157.352C1461.73 154.172 1459.01 151.707 1455.81 151.857C1452.61 152 1450.13 154.694 1450.27 157.873C1450.41 161.056 1453.13 163.517 1456.33 163.378Z" fill="white"/>
<path d="M114.199 965.632C115.599 965.568 116.695 964.486 116.635 963.218C116.578 961.946 115.388 960.974 113.985 961.035C112.581 961.099 111.492 962.178 111.546 963.443C111.607 964.718 112.792 965.7 114.203 965.629L114.199 965.632Z" fill="white"/>
<path d="M234.113 779.943C235.516 779.879 236.619 778.807 236.555 777.536C236.498 776.257 235.32 775.285 233.905 775.349C232.498 775.41 231.406 776.489 231.466 777.757C231.527 779.036 232.709 780.008 234.113 779.943Z" fill="white"/>
<path d="M11.4135 1060.65C12.8206 1060.62 13.9383 1059.57 13.9241 1058.31C13.8991 1057.03 12.7348 1056.02 11.3314 1056.05C9.92075 1056.07 8.80297 1057.12 8.8244 1058.4C8.84583 1059.67 10.0065 1060.68 11.4135 1060.65V1060.65Z" fill="white"/>
<path d="M1285.71 845.792C1285.8 842.609 1283.27 839.959 1280.06 839.876C1276.86 839.794 1274.19 842.313 1274.1 845.496C1274.02 848.682 1276.55 851.322 1279.75 851.404C1282.96 851.494 1285.63 848.975 1285.71 845.792Z" fill="white"/>
<path d="M4.63898 858.26C4.66755 856.863 3.66405 855.698 2.382 855.67C1.09637 855.637 0.0321571 856.745 1.64078e-05 858.142C-0.0392666 859.542 0.964236 860.696 2.24629 860.732C3.52478 860.764 4.59256 859.66 4.63898 858.26Z" fill="white"/>
<path d="M758.73 1069.39C761.934 1069.33 764.487 1066.7 764.43 1063.51C764.373 1060.33 761.726 1057.8 758.523 1057.86C755.313 1057.92 752.766 1060.55 752.823 1063.73C752.884 1066.92 755.523 1069.44 758.73 1069.39V1069.39Z" fill="white"/>
<path d="M1704.57 1115.83C1704.66 1112.65 1702.13 1110 1698.93 1109.92C1695.72 1109.84 1693.06 1112.35 1692.97 1115.54C1692.88 1118.72 1695.42 1121.36 1698.62 1121.45C1701.83 1121.53 1704.49 1119.02 1704.57 1115.84V1115.83Z" fill="white"/>
<path d="M1247.58 386.398C1244.4 386.241 1241.7 388.709 1241.54 391.917C1241.39 395.125 1243.84 397.844 1247.02 397.994C1250.2 398.155 1252.91 395.686 1253.06 392.482C1253.21 389.274 1250.75 386.555 1247.58 386.402V386.398Z" fill="white"/>
<path d="M356.019 770.02C354.622 769.955 353.444 770.931 353.387 772.209C353.319 773.485 354.408 774.578 355.804 774.646C357.201 774.717 358.379 773.735 358.436 772.456C358.504 771.177 357.415 770.084 356.019 770.02Z" fill="white"/>
<path d="M1188.31 1075.86C1191.5 1075.95 1194.14 1073.42 1194.23 1070.21C1194.31 1067 1191.8 1064.34 1188.62 1064.26C1185.43 1064.17 1182.78 1066.7 1182.69 1069.91C1182.62 1073.11 1185.13 1075.78 1188.31 1075.86Z" fill="white"/>
<path d="M1540.06 976.807C1541.46 976.846 1542.62 975.835 1542.65 974.556C1542.68 973.27 1541.58 972.209 1540.18 972.177C1538.78 972.134 1537.63 973.145 1537.59 974.421C1537.56 975.707 1538.67 976.768 1540.06 976.807Z" fill="white"/>
<path d="M1413.32 903.603C1414.72 903.632 1415.88 902.628 1415.91 901.345C1415.94 900.059 1414.84 898.995 1413.44 898.963C1412.04 898.923 1410.89 899.927 1410.85 901.21C1410.82 902.488 1411.92 903.557 1413.32 903.603Z" fill="white"/>
<path d="M1702.71 109.229C1702.86 112.437 1705.55 114.92 1708.74 114.77C1711.92 114.63 1714.38 111.912 1714.23 108.711C1714.09 105.507 1711.39 103.024 1708.22 103.17C1705.03 103.31 1702.57 106.028 1702.71 109.229Z" fill="white"/>
<path d="M1550.14 723.315C1550.08 720.111 1547.44 717.556 1544.26 717.624C1541.07 717.685 1538.55 720.339 1538.61 723.543C1538.67 726.755 1541.31 729.298 1544.48 729.238C1547.68 729.173 1550.2 726.523 1550.14 723.315Z" fill="white"/>
<path d="M1646.26 1087.96C1646.23 1086.56 1645.17 1085.43 1643.91 1085.46C1642.63 1085.48 1641.62 1086.65 1641.66 1088.05C1641.68 1089.46 1642.73 1090.58 1644.01 1090.55C1645.28 1090.53 1646.29 1089.37 1646.26 1087.96Z" fill="white"/>
<path d="M587.188 880.883C587.124 877.678 584.499 875.128 581.307 875.192C578.128 875.253 575.596 877.911 575.657 881.115C575.725 884.319 578.357 886.874 581.539 886.809C584.724 886.745 587.249 884.091 587.188 880.883Z" fill="white"/>
<path d="M1218.85 889.16C1218.79 885.956 1216.16 883.409 1212.97 883.469C1209.79 883.534 1207.27 886.181 1207.32 889.389C1207.39 892.597 1210.02 895.144 1213.2 895.079C1216.39 895.019 1218.91 892.368 1218.85 889.157V889.16Z" fill="white"/>
<path d="M398.798 1003.7C398.855 1006.9 401.483 1009.45 404.669 1009.39C407.854 1009.33 410.383 1006.69 410.325 1003.49C410.265 1000.28 407.64 997.723 404.454 997.784C401.265 997.841 398.737 1000.49 398.798 1003.7Z" fill="white"/>
<path d="M495.823 514.909C495.884 518.117 498.509 520.668 501.691 520.61C504.876 520.553 507.408 517.906 507.351 514.702C507.29 511.494 504.658 508.94 501.48 509C498.298 509.057 495.762 511.701 495.82 514.909H495.823Z" fill="white"/>
<path d="M1459.23 54.7295C1459.25 56.1405 1460.3 57.2587 1461.57 57.2372C1462.85 57.2158 1463.85 56.0512 1463.82 54.6473C1463.8 53.2398 1462.75 52.1181 1461.48 52.1431C1460.21 52.1645 1459.2 53.322 1459.22 54.7295H1459.23Z" fill="white"/>
<path d="M1632.07 839.219C1632.11 840.626 1633.15 841.748 1634.42 841.723C1635.7 841.702 1636.7 840.541 1636.67 839.133C1636.65 837.726 1635.6 836.604 1634.33 836.633C1633.06 836.654 1632.05 837.811 1632.07 839.219H1632.07Z" fill="white"/>
<path d="M1696.89 873.756C1696.92 875.164 1697.97 876.285 1699.24 876.26C1700.51 876.235 1701.52 875.078 1701.49 873.674C1701.47 872.266 1700.42 871.141 1699.15 871.17C1697.88 871.195 1696.87 872.349 1696.89 873.76V873.756Z" fill="white"/>
<path d="M1664.32 403.456C1664.37 406.664 1667 409.215 1670.19 409.157C1673.37 409.1 1675.9 406.453 1675.85 403.249C1675.78 400.044 1673.16 397.49 1669.98 397.544C1666.79 397.605 1664.26 400.248 1664.32 403.456Z" fill="white"/>
<path d="M490.059 417.885C493.245 417.97 495.895 415.441 495.98 412.233C496.062 409.029 493.548 406.36 490.363 406.278C487.184 406.193 484.531 408.722 484.449 411.923C484.367 415.13 486.881 417.799 490.059 417.885Z" fill="white"/>
<path d="M1038.68 697.39C1040.07 697.43 1041.24 696.426 1041.26 695.14C1041.3 693.857 1040.2 692.796 1038.79 692.754C1037.4 692.718 1036.23 693.729 1036.21 695.011C1036.18 696.283 1037.28 697.358 1038.67 697.394L1038.68 697.39Z" fill="white"/>
<path d="M1190.4 410.344C1191.8 410.379 1192.97 409.376 1192.99 408.093C1193.03 406.811 1191.93 405.75 1190.53 405.71C1189.13 405.671 1187.97 406.682 1187.93 407.954C1187.9 409.24 1189 410.308 1190.4 410.344H1190.4Z" fill="white"/>
<path d="M1253.76 947.303C1255.16 947.343 1256.32 946.342 1256.35 945.06C1256.38 943.77 1255.28 942.713 1253.88 942.67C1252.48 942.641 1251.33 943.642 1251.29 944.921C1251.25 946.203 1252.36 947.268 1253.76 947.303H1253.76Z" fill="white"/>
<path d="M1697.21 693.111C1698.61 693.15 1699.76 692.139 1699.8 690.86C1699.83 689.581 1698.72 688.517 1697.33 688.478C1695.93 688.445 1694.77 689.449 1694.74 690.721C1694.71 692.007 1695.81 693.072 1697.21 693.111Z" fill="white"/>
<path d="M1495.45 572.677C1495.51 574.085 1496.59 575.181 1497.86 575.124C1499.13 575.067 1500.11 573.881 1500.04 572.47C1499.97 571.063 1498.9 569.973 1497.64 570.034C1496.37 570.087 1495.39 571.277 1495.45 572.677Z" fill="white"/>
<path d="M564.397 375.035C564.54 378.236 567.236 380.722 570.415 380.572C573.6 380.429 576.057 377.714 575.914 374.513C575.768 371.302 573.075 368.822 569.897 368.973C566.711 369.112 564.251 371.827 564.397 375.035Z" fill="white"/>
<path d="M1656.4 1028.54C1656.47 1029.95 1657.54 1031.05 1658.81 1030.98C1660.09 1030.93 1661.06 1029.75 1661 1028.33C1660.94 1026.93 1659.86 1025.83 1658.59 1025.89C1657.31 1025.95 1656.34 1027.14 1656.4 1028.54Z" fill="white"/>
<path d="M1132.97 1084.46C1134.37 1084.5 1135.53 1083.49 1135.56 1082.21C1135.59 1080.93 1134.49 1079.87 1133.09 1079.83C1131.7 1079.79 1130.54 1080.8 1130.5 1082.07C1130.47 1083.36 1131.57 1084.43 1132.97 1084.46Z" fill="white"/>
<path d="M401.676 572.245C401.837 569.062 399.366 566.358 396.166 566.204C392.959 566.043 390.241 568.501 390.088 571.684C389.931 574.867 392.405 577.571 395.602 577.725C398.812 577.885 401.526 575.424 401.68 572.245H401.676Z" fill="white"/>
<path d="M454.544 784.555C454.608 783.158 453.63 781.98 452.348 781.915C451.073 781.855 449.98 782.937 449.916 784.334C449.848 785.731 450.826 786.913 452.098 786.974C453.376 787.034 454.473 785.952 454.54 784.555H454.544Z" fill="white"/>
<path d="M807.927 1094.37C807.991 1092.98 807.016 1091.8 805.738 1091.74C804.463 1091.67 803.37 1092.76 803.302 1094.16C803.231 1095.55 804.213 1096.73 805.491 1096.79C806.77 1096.86 807.863 1095.77 807.927 1094.37Z" fill="white"/>
</g>
<defs>
<clipPath id="clip0_97_401">
<rect width="1723" height="1118" fill="white" transform="translate(0 -1)"/>
</clipPath>
</defs>
</svg>
